#!OML:ASF F:\VICON\USERDATA\INSTALL\rory3\rory3.ASF
:FULLY-SPECIFIED
:DEGREES
2656
root -7.94021 17.6924 -0.500098 -179.467 121.39 -182.199
lowerback 2.28658 -0.146381 0.287451
upperback 0.600769 -0.124307 3.76271
thorax -0.658353 -0.0475603 3.71142
lowerneck -18.4364 1.67116 -5.5321
upperneck 35.6754 4.08007 3.10413
head 15.4494 1.64856 3.10332
rclavicle 1.20364e-013 1.59028e-015
rhumerus -16.222 17.4825 -86.3022
rradius 72.3527
rwrist -2.71822
rhand -38.5368 -13.5669
rfingers 7.12502
rthumb -11.557 -43.2282
lclavicle 1.20364e-013 1.59028e-015
lhumerus -17.7837 -2.67844 59.1548
lradius 71.7131
lwrist -10.9125
lhand -21.2421 27.5458
lfingers 7.12502
lthumb 5.14058 1137.46
rfemur -9.55302 -3.24384 23.2351
rtibia 32.362
rfoot -23.6225 -8.31319
rtoes 6.69582
lfemur -12.0174 -4.41249 -5.90928
ltibia 23.7803
lfoot -7.95812 20.4701
ltoes -8.37666
2657
root -7.94928 17.6906 -0.484641 -179.365 121.17 -182.192
lowerback 2.09859 -0.246953 0.648503
upperback 0.53393 -0.254999 3.65206
thorax -0.615627 -0.113573 3.39529
lowerneck -18.2271 2.20683 -4.95786
upperneck 35.8397 4.70588 3.05369
head 15.4558 1.98617 3.09302
rclavicle 8.40859e-014 -2.14687e-014
rhumerus -16.6223 15.6231 -85.8456
rradius 72.7231
rwrist -4.61759
rhand -39.9618 -14.6522
rfingers 7.12502
rthumb -12.931 -44.2316
lclavicle 8.40859e-014 -2.14687e-014
lhumerus -18.1689 -3.63023 59.2762
lradius 72.8019
lwrist -12.4399
lhand -21.7266 27.0167
lfingers 7.12502
lthumb 4.67278 1136.95
rfemur -9.705 -3.55262 23.2971
rtibia 32.3982
rfoot -23.6125 -8.30629
rtoes 6.80911
lfemur -12.2605 -4.63883 -5.83932
ltibia 23.8427
lfoot -7.79732 20.4944
ltoes -8.72402
2658
root -7.959 17.6928 -0.454829 -178.794 120.975 -181.928
lowerback 1.5135 -0.372366 0.53007
upperback 0.431261 -0.437756 3.69314
thorax -0.381715 -0.205979 3.50509
lowerneck -17.9572 2.69808 -4.58917
upperneck 35.995 5.34016 3.00116
head 15.4432 2.30042 3.11561
rclavicle 2.08724e-015 -3.65764e-014
rhumerus -16.8954 14.3986 -85.1956
rradius 72.9109
rwrist -5.98695
rhand -41.089 -15.6713
rfingers 7.12502
rthumb -14.0174 -45.1786
lclavicle 2.08724e-015 -3.65764e-014
lhumerus -18.6363 -4.15545 59.4707
lradius 73.7053
lwrist -14.3781
lhand -22.2678 26.4544
lfingers 7.12502
lthumb 4.15018 1136.39
rfemur -10.1028 -3.72271 23.2806
rtibia 32.4378
rfoot -23.7127 -8.21724
rtoes 7.73394
lfemur -12.751 -4.6132 -5.82831
ltibia 23.953
lfoot -7.47954 20.2505
ltoes -9.84578
2659
root -7.97103 17.6895 -0.431431 -178.19 120.924 -181.532
lowerback 1.01474 -0.457248 0.361319
upperback 0.398077 -0.565219 3.75503
thorax -0.12643 -0.271426 3.66233
lowerneck -17.7749 3.13495 -4.42578
upperneck 36.1299 5.95915 2.97648
head 15.4374 2.58297 3.18349
rclavicle -3.43897e-014 -1.59028e-015
rhumerus -16.9948 13.6006 -84.4891
rradius 72.92
rwrist -6.2248
rhand -41.8223 -16.7972
rfingers 7.12502
rthumb -14.7239 -46.2543
lclavicle -3.43897e-014 -1.59028e-015
lhumerus -18.8825 -4.44981 59.7219
lradius 74.3332
lwrist -16.554
lhand -21.8274 24.9344
lfingers 7.12502
lthumb 4.57543 1134.87
rfemur -10.4303 -3.79826 23.1984
rtibia 32.5038
rfoot -23.7722 -8.23839
rtoes 7.89378
lfemur -13.1205 -4.63492 -5.90186
ltibia 24.0859
lfoot -7.17552 20.1275
ltoes -10.9716
2660
root -7.98598 17.6821 -0.415335 -177.999 120.958 -181.469
lowerback 0.723099 -0.556747 0.400904
upperback 0.416602 -0.70435 3.85879
thorax 0.0655242 -0.342012 3.74576
lowerneck -17.7287 3.56439 -4.31605
upperneck 36.31 6.60041 2.9382
head 15.4851 2.86108 3.2656
rclavicle 1.60022e-014 -5.88403e-014
rhumerus -16.9451 13.3029 -83.8043
rradius 72.8463
rwrist -5.81402
rhand -42.3203 -17.2626
rfingers 7.12502
rthumb -15.2037 -46.684
lclavicle 1.60022e-014 -5.88403e-014
lhumerus -19.1612 -4.85366 59.911
lradius 74.9069
lwrist -18.4022
lhand -21.4301 23.7235
lfingers 7.12502
lthumb 4.95909 1133.65
rfemur -10.6177 -3.85541 23.3026
rtibia 32.5966
rfoot -23.7663 -8.38099
rtoes 7.16268
lfemur -13.3339 -4.71856 -5.79017
ltibia 24.1776
lfoot -6.92209 20.1117
ltoes -11.524
